<svg width="240" height="240" viewBox="0 0 240 240" fill="none" xmlns="http://www.w3.org/2000/svg">
<g filter="url(#filter0_b_81_10)">
<circle cx="120" cy="120" r="120" fill="url(#paint0_linear_81_10)"/>
<circle cx="120" cy="120" r="110" stroke="url(#paint1_linear_81_10)" stroke-width="20"/>
</g>
<path d="M40.7913 96C40.6739 96 40.5833 95.968 40.5193 95.904C40.4553 95.8293 40.4233 95.7387 40.4233 95.632V85.184C40.4233 85.0667 40.4553 84.976 40.5193 84.912C40.5833 84.8373 40.6739 84.8 40.7913 84.8H48.6793C48.7966 84.8 48.8873 84.8373 48.9513 84.912C49.0259 84.976 49.0633 85.0667 49.0633 85.184V95.632C49.0633 95.7387 49.0259 95.8293 48.9513 95.904C48.8873 95.968 48.7966 96 48.6793 96H47.8633C47.7566 96 47.6659 95.968 47.5913 95.904C47.5273 95.8293 47.4953 95.7387 47.4953 95.632V86.24H41.9913V95.632C41.9913 95.7387 41.9539 95.8293 41.8793 95.904C41.8153 95.968 41.7246 96 41.6073 96H40.7913ZM51.2215 96C51.1148 96 51.0242 95.9627 50.9495 95.888C50.8748 95.8133 50.8375 95.7227 50.8375 95.616V95.024C50.8375 94.8 50.9495 94.6827 51.1735 94.672C51.5042 94.6613 51.7815 94.5067 52.0055 94.208C52.2295 93.8987 52.4002 93.4133 52.5175 92.752C52.6348 92.08 52.6935 91.1947 52.6935 90.096V88.048C52.6935 87.9413 52.7255 87.856 52.7895 87.792C52.8642 87.7173 52.9548 87.68 53.0615 87.68H58.1495C58.2562 87.68 58.3415 87.7173 58.4055 87.792C58.4802 87.856 58.5175 87.9413 58.5175 88.048V95.632C58.5175 95.7387 58.4802 95.8293 58.4055 95.904C58.3415 95.968 58.2562 96 58.1495 96H57.3815C57.2748 96 57.1895 95.968 57.1255 95.904C57.0615 95.8293 57.0295 95.7387 57.0295 95.632V88.96H54.1495V90.272C54.1495 91.296 54.0908 92.176 53.9735 92.912C53.8562 93.6373 53.6748 94.2293 53.4295 94.688C53.1948 95.136 52.8908 95.4667 52.5175 95.68C52.1548 95.8933 51.7228 96 51.2215 96ZM64.3108 96.16C63.5001 96.16 62.8228 96.0053 62.2788 95.696C61.7348 95.3867 61.3188 94.96 61.0308 94.416C60.7428 93.8613 60.5828 93.232 60.5508 92.528C60.5401 92.3467 60.5348 92.1173 60.5348 91.84C60.5348 91.552 60.5401 91.3227 60.5508 91.152C60.5828 90.4373 60.7428 89.808 61.0308 89.264C61.3294 88.72 61.7508 88.2933 62.2948 87.984C62.8388 87.6747 63.5108 87.52 64.3108 87.52C65.1108 87.52 65.7828 87.6747 66.3268 87.984C66.8708 88.2933 67.2868 88.72 67.5748 89.264C67.8734 89.808 68.0388 90.4373 68.0708 91.152C68.0814 91.3227 68.0868 91.552 68.0868 91.84C68.0868 92.1173 68.0814 92.3467 68.0708 92.528C68.0388 93.232 67.8788 93.8613 67.5908 94.416C67.3028 94.96 66.8868 95.3867 66.3428 95.696C65.7988 96.0053 65.1214 96.16 64.3108 96.16ZM64.3108 94.928C64.9721 94.928 65.5001 94.72 65.8948 94.304C66.2894 93.8773 66.5028 93.2587 66.5348 92.448C66.5454 92.288 66.5508 92.0853 66.5508 91.84C66.5508 91.5947 66.5454 91.392 66.5348 91.232C66.5028 90.4213 66.2894 89.808 65.8948 89.392C65.5001 88.9653 64.9721 88.752 64.3108 88.752C63.6494 88.752 63.1161 88.9653 62.7108 89.392C62.3161 89.808 62.1081 90.4213 62.0868 91.232C62.0761 91.392 62.0707 91.5947 62.0707 91.84C62.0707 92.0853 62.0761 92.288 62.0868 92.448C62.1081 93.2587 62.3161 93.8773 62.7108 94.304C63.1161 94.72 63.6494 94.928 64.3108 94.928ZM80.2983 98.016C80.1916 98.016 80.1009 97.984 80.0263 97.92C79.9623 97.856 79.9303 97.7653 79.9303 97.648V96H70.4583C70.3516 96 70.2609 95.968 70.1863 95.904C70.1223 95.8293 70.0903 95.7387 70.0903 95.632V88.048C70.0903 87.9413 70.1223 87.856 70.1863 87.792C70.2609 87.7173 70.3516 87.68 70.4583 87.68H71.1943C71.3009 87.68 71.3863 87.7173 71.4503 87.792C71.5249 87.856 71.5623 87.9413 71.5623 88.048V94.72H74.4903V88.048C74.4903 87.9413 74.5223 87.856 74.5863 87.792C74.6609 87.7173 74.7516 87.68 74.8583 87.68H75.5303C75.6476 87.68 75.7383 87.7173 75.8023 87.792C75.8663 87.856 75.8983 87.9413 75.8983 88.048V94.72H78.8263V88.048C78.8263 87.9413 78.8583 87.856 78.9223 87.792C78.9969 87.7173 79.0876 87.68 79.1943 87.68H79.9303C80.0369 87.68 80.1223 87.7173 80.1863 87.792C80.2609 87.856 80.2983 87.9413 80.2983 88.048V94.72H81.0663C81.1729 94.72 81.2583 94.7573 81.3223 94.832C81.3863 94.896 81.4183 94.9813 81.4183 95.088V97.648C81.4183 97.7653 81.3863 97.856 81.3223 97.92C81.2583 97.984 81.1729 98.016 81.0663 98.016H80.2983ZM85.4259 96.16C84.8925 96.16 84.4072 96.0533 83.9699 95.84C83.5325 95.6267 83.1805 95.3387 82.9139 94.976C82.6472 94.6133 82.5139 94.2027 82.5139 93.744C82.5139 93.008 82.8125 92.4213 83.4099 91.984C84.0072 91.5467 84.7859 91.2587 85.7459 91.12L88.1299 90.784V90.32C88.1299 89.808 87.9805 89.408 87.6819 89.12C87.3939 88.832 86.9192 88.688 86.2579 88.688C85.7779 88.688 85.3885 88.784 85.0899 88.976C84.8019 89.168 84.5992 89.4133 84.4819 89.712C84.4179 89.872 84.3059 89.952 84.1459 89.952H83.4259C83.3085 89.952 83.2179 89.92 83.1539 89.856C83.1005 89.7813 83.0739 89.696 83.0739 89.6C83.0739 89.44 83.1325 89.2427 83.2499 89.008C83.3779 88.7733 83.5699 88.544 83.8259 88.32C84.0819 88.096 84.4072 87.9093 84.8019 87.76C85.2072 87.6 85.6979 87.52 86.2739 87.52C86.9139 87.52 87.4525 87.6053 87.8899 87.776C88.3272 87.936 88.6685 88.1547 88.9139 88.432C89.1699 88.7093 89.3512 89.024 89.4579 89.376C89.5752 89.728 89.6339 90.0853 89.6339 90.448V95.632C89.6339 95.7387 89.5965 95.8293 89.5219 95.904C89.4579 95.968 89.3725 96 89.2659 96H88.5299C88.4125 96 88.3219 95.968 88.2579 95.904C88.1939 95.8293 88.1619 95.7387 88.1619 95.632V94.944C88.0232 95.136 87.8365 95.328 87.6019 95.52C87.3672 95.7013 87.0739 95.856 86.7219 95.984C86.3699 96.1013 85.9379 96.16 85.4259 96.16ZM85.7619 94.96C86.1992 94.96 86.5992 94.8693 86.9619 94.688C87.3245 94.496 87.6072 94.2027 87.8099 93.808C88.0232 93.4133 88.1299 92.9173 88.1299 92.32V91.872L86.2739 92.144C85.5165 92.2507 84.9459 92.432 84.5619 92.688C84.1779 92.9333 83.9859 93.248 83.9859 93.632C83.9859 93.9307 84.0712 94.1813 84.2419 94.384C84.4232 94.576 84.6472 94.72 84.9139 94.816C85.1912 94.912 85.4739 94.96 85.7619 94.96ZM91.454 97.76C91.3473 97.76 91.2567 97.7227 91.182 97.648C91.118 97.584 91.086 97.4987 91.086 97.392V95.088C91.086 94.9813 91.118 94.896 91.182 94.832C91.2567 94.7573 91.3473 94.72 91.454 94.72H91.534C91.822 94.7093 92.0673 94.5493 92.27 94.24C92.4727 93.92 92.6273 93.424 92.734 92.752C92.8407 92.0693 92.894 91.184 92.894 90.096V88.048C92.894 87.9413 92.926 87.856 92.99 87.792C93.0647 87.7173 93.1553 87.68 93.262 87.68H98.366C98.4727 87.68 98.558 87.7173 98.622 87.792C98.6967 87.856 98.734 87.9413 98.734 88.048V94.688H99.486C99.6033 94.688 99.694 94.7253 99.758 94.8C99.822 94.864 99.854 94.9493 99.854 95.056V97.392C99.854 97.4987 99.822 97.584 99.758 97.648C99.694 97.7227 99.6033 97.76 99.486 97.76H98.734C98.6273 97.76 98.5367 97.7227 98.462 97.648C98.398 97.584 98.366 97.4987 98.366 97.392V96H92.574V97.392C92.574 97.4987 92.5367 97.584 92.462 97.648C92.398 97.7227 92.3127 97.76 92.206 97.76H91.454ZM93.438 94.72L97.246 94.688V88.96H94.35V90.272C94.35 91.4027 94.27 92.3307 94.11 93.056C93.95 93.7707 93.726 94.3253 93.438 94.72ZM101.896 96C101.789 96 101.698 95.968 101.624 95.904C101.56 95.8293 101.528 95.7387 101.528 95.632V88.048C101.528 87.9413 101.56 87.856 101.624 87.792C101.698 87.7173 101.789 87.68 101.896 87.68H102.664C102.77 87.68 102.856 87.7173 102.92 87.792C102.994 87.856 103.032 87.9413 103.032 88.048V90.4H104.824C105.912 90.4 106.706 90.656 107.208 91.168C107.709 91.68 107.96 92.3733 107.96 93.248C107.96 94.1867 107.682 94.88 107.128 95.328C106.573 95.776 105.741 96 104.632 96H101.896ZM103.016 94.8H104.696C105.336 94.8 105.805 94.688 106.104 94.464C106.402 94.2293 106.552 93.824 106.552 93.248C106.552 92.6933 106.408 92.2827 106.12 92.016C105.832 91.7387 105.357 91.6 104.696 91.6H103.016V94.8ZM113.833 96C113.727 96 113.636 95.968 113.561 95.904C113.497 95.8293 113.465 95.7387 113.465 95.632V88.048C113.465 87.9413 113.497 87.856 113.561 87.792C113.636 87.7173 113.727 87.68 113.833 87.68H120.185C120.292 87.68 120.377 87.7173 120.441 87.792C120.516 87.856 120.553 87.9413 120.553 88.048V95.632C120.553 95.7387 120.516 95.8293 120.441 95.904C120.377 95.968 120.292 96 120.185 96H119.417C119.311 96 119.225 95.968 119.161 95.904C119.097 95.8293 119.065 95.7387 119.065 95.632V88.96H114.953V95.632C114.953 95.7387 114.921 95.8293 114.857 95.904C114.793 95.968 114.708 96 114.601 96H113.833ZM126.342 96.16C125.531 96.16 124.854 96.0053 124.31 95.696C123.766 95.3867 123.35 94.96 123.062 94.416C122.774 93.8613 122.614 93.232 122.582 92.528C122.571 92.3467 122.566 92.1173 122.566 91.84C122.566 91.552 122.571 91.3227 122.582 91.152C122.614 90.4373 122.774 89.808 123.062 89.264C123.361 88.72 123.782 88.2933 124.326 87.984C124.87 87.6747 125.542 87.52 126.342 87.52C127.142 87.52 127.814 87.6747 128.358 87.984C128.902 88.2933 129.318 88.72 129.606 89.264C129.905 89.808 130.07 90.4373 130.102 91.152C130.113 91.3227 130.118 91.552 130.118 91.84C130.118 92.1173 130.113 92.3467 130.102 92.528C130.07 93.232 129.91 93.8613 129.622 94.416C129.334 94.96 128.918 95.3867 128.374 95.696C127.83 96.0053 127.153 96.16 126.342 96.16ZM126.342 94.928C127.003 94.928 127.531 94.72 127.926 94.304C128.321 93.8773 128.534 93.2587 128.566 92.448C128.577 92.288 128.582 92.0853 128.582 91.84C128.582 91.5947 128.577 91.392 128.566 91.232C128.534 90.4213 128.321 89.808 127.926 89.392C127.531 88.9653 127.003 88.752 126.342 88.752C125.681 88.752 125.147 88.9653 124.742 89.392C124.347 89.808 124.139 90.4213 124.118 91.232C124.107 91.392 124.102 91.5947 124.102 91.84C124.102 92.0853 124.107 92.288 124.118 92.448C124.139 93.2587 124.347 93.8773 124.742 94.304C125.147 94.72 125.681 94.928 126.342 94.928ZM132.474 96C132.367 96 132.282 95.968 132.218 95.904C132.154 95.84 132.122 95.7547 132.122 95.648V87.984C132.122 87.8987 132.154 87.8293 132.218 87.776C132.292 87.712 132.367 87.68 132.442 87.68H133.258C133.428 87.68 133.562 87.7653 133.658 87.936L136.378 93.024L139.114 87.936C139.21 87.7653 139.343 87.68 139.514 87.68H140.314C140.399 87.68 140.474 87.712 140.538 87.776C140.602 87.8293 140.634 87.8987 140.634 87.984V95.648C140.634 95.7547 140.602 95.84 140.538 95.904C140.474 95.968 140.394 96 140.298 96H139.514C139.407 96 139.322 95.968 139.258 95.904C139.194 95.84 139.161 95.7547 139.161 95.648V89.264L139.722 89.328L137.114 94.256C137.06 94.3627 136.996 94.4587 136.922 94.544C136.847 94.6293 136.735 94.672 136.586 94.672H136.17C136.031 94.672 135.924 94.6293 135.85 94.544C135.775 94.4587 135.706 94.3627 135.641 94.256L133.114 89.568L133.61 89.52V95.648C133.61 95.7547 133.578 95.84 133.514 95.904C133.45 95.968 133.364 96 133.258 96H132.474ZM146.34 96.16C145.241 96.16 144.366 95.824 143.716 95.152C143.065 94.4693 142.708 93.5413 142.644 92.368C142.633 92.2293 142.628 92.0533 142.628 91.84C142.628 91.616 142.633 91.4347 142.644 91.296C142.686 90.5387 142.862 89.8773 143.172 89.312C143.481 88.736 143.902 88.2933 144.436 87.984C144.98 87.6747 145.614 87.52 146.34 87.52C147.15 87.52 147.828 87.6907 148.372 88.032C148.926 88.3733 149.348 88.8587 149.636 89.488C149.924 90.1173 150.068 90.8533 150.068 91.696V91.968C150.068 92.0853 150.03 92.176 149.956 92.24C149.892 92.304 149.806 92.336 149.7 92.336H144.164C144.164 92.3467 144.164 92.368 144.164 92.4C144.164 92.432 144.164 92.4587 144.164 92.48C144.185 92.9173 144.281 93.328 144.452 93.712C144.622 94.0853 144.868 94.3893 145.188 94.624C145.508 94.8587 145.892 94.976 146.34 94.976C146.724 94.976 147.044 94.9173 147.3 94.8C147.556 94.6827 147.764 94.5547 147.924 94.416C148.084 94.2667 148.19 94.1547 148.244 94.08C148.34 93.9413 148.414 93.8613 148.468 93.84C148.521 93.808 148.606 93.792 148.724 93.792H149.492C149.598 93.792 149.684 93.824 149.748 93.888C149.822 93.9413 149.854 94.0213 149.844 94.128C149.833 94.288 149.748 94.4853 149.588 94.72C149.428 94.944 149.198 95.168 148.9 95.392C148.601 95.616 148.238 95.8027 147.812 95.952C147.385 96.0907 146.894 96.16 146.34 96.16ZM144.164 91.232H148.548V91.184C148.548 90.704 148.457 90.2773 148.276 89.904C148.105 89.5307 147.854 89.2373 147.524 89.024C147.193 88.8 146.798 88.688 146.34 88.688C145.881 88.688 145.486 88.8 145.156 89.024C144.836 89.2373 144.59 89.5307 144.42 89.904C144.249 90.2773 144.164 90.704 144.164 91.184V91.232ZM162.189 98.016C162.082 98.016 161.992 97.984 161.917 97.92C161.853 97.856 161.821 97.7653 161.821 97.648V96H152.349C152.242 96 152.152 95.968 152.077 95.904C152.013 95.8293 151.981 95.7387 151.981 95.632V88.048C151.981 87.9413 152.013 87.856 152.077 87.792C152.152 87.7173 152.242 87.68 152.349 87.68H153.085C153.192 87.68 153.277 87.7173 153.341 87.792C153.416 87.856 153.453 87.9413 153.453 88.048V94.72H156.381V88.048C156.381 87.9413 156.413 87.856 156.477 87.792C156.552 87.7173 156.642 87.68 156.749 87.68H157.421C157.538 87.68 157.629 87.7173 157.693 87.792C157.757 87.856 157.789 87.9413 157.789 88.048V94.72H160.717V88.048C160.717 87.9413 160.749 87.856 160.813 87.792C160.888 87.7173 160.978 87.68 161.085 87.68H161.821C161.928 87.68 162.013 87.7173 162.077 87.792C162.152 87.856 162.189 87.9413 162.189 88.048V94.72H162.957C163.064 94.72 163.149 94.7573 163.213 94.832C163.277 94.896 163.309 94.9813 163.309 95.088V97.648C163.309 97.7653 163.277 97.856 163.213 97.92C163.149 97.984 163.064 98.016 162.957 98.016H162.189ZM168.309 96.16C167.21 96.16 166.335 95.824 165.685 95.152C165.034 94.4693 164.677 93.5413 164.613 92.368C164.602 92.2293 164.597 92.0533 164.597 91.84C164.597 91.616 164.602 91.4347 164.613 91.296C164.655 90.5387 164.831 89.8773 165.141 89.312C165.45 88.736 165.871 88.2933 166.405 87.984C166.949 87.6747 167.583 87.52 168.309 87.52C169.119 87.52 169.797 87.6907 170.341 88.032C170.895 88.3733 171.317 88.8587 171.605 89.488C171.893 90.1173 172.036 90.8533 172.036 91.696V91.968C172.036 92.0853 171.999 92.176 171.925 92.24C171.861 92.304 171.775 92.336 171.669 92.336H166.133C166.133 92.3467 166.133 92.368 166.133 92.4C166.133 92.432 166.133 92.4587 166.133 92.48C166.154 92.9173 166.25 93.328 166.421 93.712C166.591 94.0853 166.837 94.3893 167.157 94.624C167.477 94.8587 167.861 94.976 168.309 94.976C168.693 94.976 169.013 94.9173 169.269 94.8C169.525 94.6827 169.733 94.5547 169.893 94.416C170.053 94.2667 170.159 94.1547 170.213 94.08C170.309 93.9413 170.383 93.8613 170.437 93.84C170.49 93.808 170.575 93.792 170.693 93.792H171.461C171.567 93.792 171.653 93.824 171.717 93.888C171.791 93.9413 171.823 94.0213 171.812 94.128C171.802 94.288 171.717 94.4853 171.557 94.72C171.397 94.944 171.167 95.168 170.869 95.392C170.57 95.616 170.207 95.8027 169.781 95.952C169.354 96.0907 168.863 96.16 168.309 96.16ZM166.133 91.232H170.517V91.184C170.517 90.704 170.426 90.2773 170.245 89.904C170.074 89.5307 169.823 89.2373 169.493 89.024C169.162 88.8 168.767 88.688 168.309 88.688C167.85 88.688 167.455 88.8 167.125 89.024C166.805 89.2373 166.559 89.5307 166.389 89.904C166.218 90.2773 166.133 90.704 166.133 91.184V91.232ZM174.318 96C174.211 96 174.12 95.968 174.046 95.904C173.982 95.8293 173.95 95.7387 173.95 95.632V88.048C173.95 87.9413 173.982 87.856 174.046 87.792C174.12 87.7173 174.211 87.68 174.318 87.68H175.086C175.192 87.68 175.278 87.7173 175.342 87.792C175.406 87.856 175.438 87.9413 175.438 88.048V91.12H179.806V88.048C179.806 87.9413 179.838 87.856 179.902 87.792C179.976 87.7173 180.067 87.68 180.174 87.68H180.926C181.032 87.68 181.118 87.7173 181.182 87.792C181.256 87.856 181.294 87.9413 181.294 88.048V95.632C181.294 95.7387 181.256 95.8293 181.182 95.904C181.118 95.968 181.032 96 180.926 96H180.174C180.067 96 179.976 95.968 179.902 95.904C179.838 95.8293 179.806 95.7387 179.806 95.632V92.4H175.438V95.632C175.438 95.7387 175.406 95.8293 175.342 95.904C175.278 95.968 175.192 96 175.086 96H174.318ZM184.052 96C183.956 96 183.87 95.968 183.796 95.904C183.732 95.8293 183.7 95.7493 183.7 95.664V88.048C183.7 87.9413 183.732 87.856 183.796 87.792C183.87 87.7173 183.961 87.68 184.068 87.68H184.836C184.942 87.68 185.028 87.7173 185.092 87.792C185.156 87.856 185.188 87.9413 185.188 88.048V94.832L184.772 94.4L189.62 87.92C189.673 87.856 189.732 87.8027 189.796 87.76C189.86 87.7067 189.94 87.68 190.036 87.68H190.772C190.857 87.68 190.932 87.712 190.996 87.776C191.07 87.84 191.108 87.9147 191.108 88V95.632C191.108 95.7387 191.07 95.8293 190.996 95.904C190.932 95.968 190.846 96 190.74 96H189.988C189.87 96 189.78 95.968 189.716 95.904C189.652 95.8293 189.62 95.7387 189.62 95.632V89.248L190.068 89.232L185.188 95.76C185.145 95.8133 185.092 95.8667 185.028 95.92C184.964 95.9733 184.878 96 184.772 96H184.052ZM198.634 96C198.516 96 198.426 95.968 198.362 95.904C198.298 95.8293 198.266 95.7387 198.266 95.632V93.024H196.426V92.944C195.423 92.944 194.676 92.6987 194.186 92.208C193.706 91.7067 193.466 91.072 193.466 90.304C193.466 89.408 193.727 88.7467 194.25 88.32C194.783 87.8933 195.583 87.68 196.65 87.68H199.402C199.508 87.68 199.594 87.7173 199.658 87.792C199.732 87.856 199.77 87.9413 199.77 88.048V95.632C199.77 95.7387 199.732 95.8293 199.658 95.904C199.594 95.968 199.508 96 199.402 96H198.634ZM193.562 96C193.466 96 193.386 95.968 193.322 95.904C193.258 95.84 193.226 95.7653 193.226 95.68C193.226 95.6373 193.231 95.5947 193.242 95.552C193.263 95.4987 193.295 95.4453 193.338 95.392L195.242 92.576L196.778 92.688L194.746 95.76C194.703 95.8133 194.644 95.8667 194.57 95.92C194.495 95.9733 194.415 96 194.33 96H193.562ZM196.474 91.824H198.282V88.88H196.602C196.004 88.88 195.562 88.9867 195.274 89.2C194.996 89.4027 194.858 89.7707 194.858 90.304C194.858 90.7413 194.986 91.104 195.242 91.392C195.508 91.68 195.919 91.824 196.474 91.824ZM73.9036 122C73.7969 122 73.7062 121.968 73.6316 121.904C73.5676 121.829 73.5356 121.739 73.5356 121.632V114.048C73.5356 113.941 73.5676 113.856 73.6316 113.792C73.7062 113.717 73.7969 113.68 73.9036 113.68H80.2556C80.3622 113.68 80.4476 113.717 80.5116 113.792C80.5862 113.856 80.6236 113.941 80.6236 114.048V121.632C80.6236 121.739 80.5862 121.829 80.5116 121.904C80.4476 121.968 80.3622 122 80.2556 122H79.4876C79.3809 122 79.2956 121.968 79.2316 121.904C79.1676 121.829 79.1356 121.739 79.1356 121.632V114.96H75.0236V121.632C75.0236 121.739 74.9916 121.829 74.9276 121.904C74.8636 121.968 74.7782 122 74.6716 122H73.9036ZM86.4123 122.16C85.6016 122.16 84.9243 122.005 84.3803 121.696C83.8363 121.387 83.4203 120.96 83.1323 120.416C82.8443 119.861 82.6843 119.232 82.6523 118.528C82.6416 118.347 82.6363 118.117 82.6363 117.84C82.6363 117.552 82.6416 117.323 82.6523 117.152C82.6843 116.437 82.8443 115.808 83.1323 115.264C83.431 114.72 83.8523 114.293 84.3963 113.984C84.9403 113.675 85.6123 113.52 86.4123 113.52C87.2123 113.52 87.8843 113.675 88.4283 113.984C88.9723 114.293 89.3883 114.72 89.6763 115.264C89.975 115.808 90.1403 116.437 90.1723 117.152C90.183 117.323 90.1883 117.552 90.1883 117.84C90.1883 118.117 90.183 118.347 90.1723 118.528C90.1403 119.232 89.9803 119.861 89.6923 120.416C89.4043 120.96 88.9883 121.387 88.4443 121.696C87.9003 122.005 87.223 122.16 86.4123 122.16ZM86.4123 120.928C87.0736 120.928 87.6016 120.72 87.9963 120.304C88.391 119.877 88.6043 119.259 88.6363 118.448C88.647 118.288 88.6523 118.085 88.6523 117.84C88.6523 117.595 88.647 117.392 88.6363 117.232C88.6043 116.421 88.391 115.808 87.9963 115.392C87.6016 114.965 87.0736 114.752 86.4123 114.752C85.751 114.752 85.2176 114.965 84.8123 115.392C84.4176 115.808 84.2096 116.421 84.1883 117.232C84.1776 117.392 84.1723 117.595 84.1723 117.84C84.1723 118.085 84.1776 118.288 84.1883 118.448C84.2096 119.259 84.4176 119.877 84.8123 120.304C85.2176 120.72 85.751 120.928 86.4123 120.928ZM91.7118 123.76C91.6051 123.76 91.5145 123.723 91.4398 123.648C91.3758 123.584 91.3438 123.499 91.3438 123.392V121.088C91.3438 120.981 91.3758 120.896 91.4398 120.832C91.5145 120.757 91.6051 120.72 91.7118 120.72H91.7918C92.0798 120.709 92.3251 120.549 92.5278 120.24C92.7305 119.92 92.8851 119.424 92.9918 118.752C93.0985 118.069 93.1518 117.184 93.1518 116.096V114.048C93.1518 113.941 93.1838 113.856 93.2478 113.792C93.3225 113.717 93.4131 113.68 93.5198 113.68H98.6238C98.7305 113.68 98.8158 113.717 98.8798 113.792C98.9545 113.856 98.9918 113.941 98.9918 114.048V120.688H99.7438C99.8611 120.688 99.9518 120.725 100.016 120.8C100.08 120.864 100.112 120.949 100.112 121.056V123.392C100.112 123.499 100.08 123.584 100.016 123.648C99.9518 123.723 99.8611 123.76 99.7438 123.76H98.9918C98.8851 123.76 98.7945 123.723 98.7198 123.648C98.6558 123.584 98.6238 123.499 98.6238 123.392V122H92.8318V123.392C92.8318 123.499 92.7945 123.584 92.7198 123.648C92.6558 123.723 92.5705 123.76 92.4638 123.76H91.7118ZM93.6958 120.72L97.5038 120.688V114.96H94.6078V116.272C94.6078 117.403 94.5278 118.331 94.3678 119.056C94.2078 119.771 93.9838 120.325 93.6958 120.72ZM106.059 122C105.953 122 105.867 121.968 105.803 121.904C105.739 121.84 105.707 121.755 105.707 121.648V113.984C105.707 113.899 105.739 113.829 105.803 113.776C105.878 113.712 105.953 113.68 106.027 113.68H106.843C107.014 113.68 107.147 113.765 107.243 113.936L109.963 119.024L112.699 113.936C112.795 113.765 112.929 113.68 113.099 113.68H113.899C113.985 113.68 114.059 113.712 114.123 113.776C114.187 113.829 114.219 113.899 114.219 113.984V121.648C114.219 121.755 114.187 121.84 114.123 121.904C114.059 121.968 113.979 122 113.883 122H113.099C112.993 122 112.907 121.968 112.843 121.904C112.779 121.84 112.747 121.755 112.747 121.648V115.264L113.307 115.328L110.699 120.256C110.646 120.363 110.582 120.459 110.507 120.544C110.433 120.629 110.321 120.672 110.171 120.672H109.755C109.617 120.672 109.51 120.629 109.435 120.544C109.361 120.459 109.291 120.363 109.227 120.256L106.699 115.568L107.195 115.52V121.648C107.195 121.755 107.163 121.84 107.099 121.904C107.035 121.968 106.95 122 106.843 122H106.059ZM118.934 122.16C118.4 122.16 117.915 122.053 117.478 121.84C117.04 121.627 116.688 121.339 116.422 120.976C116.155 120.613 116.022 120.203 116.022 119.744C116.022 119.008 116.32 118.421 116.918 117.984C117.515 117.547 118.294 117.259 119.254 117.12L121.638 116.784V116.32C121.638 115.808 121.488 115.408 121.19 115.12C120.902 114.832 120.427 114.688 119.766 114.688C119.286 114.688 118.896 114.784 118.598 114.976C118.31 115.168 118.107 115.413 117.99 115.712C117.926 115.872 117.814 115.952 117.654 115.952H116.934C116.816 115.952 116.726 115.92 116.662 115.856C116.608 115.781 116.582 115.696 116.582 115.6C116.582 115.44 116.64 115.243 116.758 115.008C116.886 114.773 117.078 114.544 117.334 114.32C117.59 114.096 117.915 113.909 118.31 113.76C118.715 113.6 119.206 113.52 119.782 113.52C120.422 113.52 120.96 113.605 121.398 113.776C121.835 113.936 122.176 114.155 122.422 114.432C122.678 114.709 122.859 115.024 122.966 115.376C123.083 115.728 123.142 116.085 123.142 116.448V121.632C123.142 121.739 123.104 121.829 123.03 121.904C122.966 121.968 122.88 122 122.774 122H122.038C121.92 122 121.83 121.968 121.766 121.904C121.702 121.829 121.67 121.739 121.67 121.632V120.944C121.531 121.136 121.344 121.328 121.11 121.52C120.875 121.701 120.582 121.856 120.23 121.984C119.878 122.101 119.446 122.16 118.934 122.16ZM119.27 120.96C119.707 120.96 120.107 120.869 120.47 120.688C120.832 120.496 121.115 120.203 121.318 119.808C121.531 119.413 121.638 118.917 121.638 118.32V117.872L119.782 118.144C119.024 118.251 118.454 118.432 118.07 118.688C117.686 118.933 117.494 119.248 117.494 119.632C117.494 119.931 117.579 120.181 117.75 120.384C117.931 120.576 118.155 120.72 118.422 120.816C118.699 120.912 118.982 120.96 119.27 120.96ZM125.81 122C125.703 122 125.612 121.968 125.538 121.904C125.474 121.829 125.442 121.739 125.442 121.632V114.048C125.442 113.941 125.474 113.856 125.538 113.792C125.612 113.717 125.703 113.68 125.81 113.68H130.594C130.7 113.68 130.786 113.717 130.85 113.792C130.914 113.856 130.946 113.941 130.946 114.048V114.592C130.946 114.699 130.914 114.789 130.85 114.864C130.786 114.928 130.7 114.96 130.594 114.96H126.93V121.632C126.93 121.739 126.898 121.829 126.834 121.904C126.77 121.968 126.684 122 126.578 122H125.81ZM134.637 122.16C134.103 122.16 133.618 122.053 133.181 121.84C132.743 121.627 132.391 121.339 132.125 120.976C131.858 120.613 131.725 120.203 131.725 119.744C131.725 119.008 132.023 118.421 132.621 117.984C133.218 117.547 133.997 117.259 134.957 117.12L137.341 116.784V116.32C137.341 115.808 137.191 115.408 136.893 115.12C136.605 114.832 136.13 114.688 135.469 114.688C134.989 114.688 134.599 114.784 134.301 114.976C134.013 115.168 133.81 115.413 133.693 115.712C133.629 115.872 133.517 115.952 133.357 115.952H132.637C132.519 115.952 132.429 115.92 132.365 115.856C132.311 115.781 132.285 115.696 132.285 115.6C132.285 115.44 132.343 115.243 132.461 115.008C132.589 114.773 132.781 114.544 133.037 114.32C133.293 114.096 133.618 113.909 134.013 113.76C134.418 113.6 134.909 113.52 135.485 113.52C136.125 113.52 136.663 113.605 137.101 113.776C137.538 113.936 137.879 114.155 138.125 114.432C138.381 114.709 138.562 115.024 138.669 115.376C138.786 115.728 138.845 116.085 138.845 116.448V121.632C138.845 121.739 138.807 121.829 138.733 121.904C138.669 121.968 138.583 122 138.477 122H137.741C137.623 122 137.533 121.968 137.469 121.904C137.405 121.829 137.373 121.739 137.373 121.632V120.944C137.234 121.136 137.047 121.328 136.813 121.52C136.578 121.701 136.285 121.856 135.933 121.984C135.581 122.101 135.149 122.16 134.637 122.16ZM134.973 120.96C135.41 120.96 135.81 120.869 136.173 120.688C136.535 120.496 136.818 120.203 137.021 119.808C137.234 119.413 137.341 118.917 137.341 118.32V117.872L135.485 118.144C134.727 118.251 134.157 118.432 133.773 118.688C133.389 118.933 133.197 119.248 133.197 119.632C133.197 119.931 133.282 120.181 133.453 120.384C133.634 120.576 133.858 120.72 134.125 120.816C134.402 120.912 134.685 120.96 134.973 120.96ZM144.041 122.16C143.412 122.16 142.878 122.085 142.441 121.936C142.014 121.776 141.668 121.579 141.401 121.344C141.145 121.099 140.958 120.848 140.841 120.592C140.724 120.325 140.66 120.08 140.649 119.856C140.649 119.76 140.681 119.685 140.745 119.632C140.809 119.568 140.884 119.536 140.969 119.536H141.721C141.817 119.536 141.897 119.563 141.961 119.616C142.025 119.659 142.073 119.739 142.105 119.856C142.233 120.261 142.478 120.544 142.841 120.704C143.204 120.864 143.646 120.944 144.169 120.944C144.51 120.944 144.825 120.901 145.113 120.816C145.401 120.72 145.625 120.571 145.785 120.368C145.956 120.165 146.041 119.915 146.041 119.616C146.041 119.179 145.913 118.848 145.657 118.624C145.412 118.4 145.028 118.288 144.505 118.288H143.625C143.518 118.288 143.433 118.256 143.369 118.192C143.305 118.128 143.273 118.043 143.273 117.936V117.504C143.273 117.408 143.305 117.328 143.369 117.264C143.433 117.189 143.518 117.152 143.625 117.152H144.409C144.846 117.152 145.182 117.067 145.417 116.896C145.652 116.725 145.769 116.453 145.769 116.08C145.769 115.856 145.716 115.643 145.609 115.44C145.502 115.237 145.321 115.072 145.065 114.944C144.82 114.805 144.478 114.736 144.041 114.736C143.422 114.736 142.985 114.843 142.729 115.056C142.484 115.259 142.308 115.563 142.201 115.968C142.158 116.085 142.105 116.165 142.041 116.208C141.988 116.251 141.908 116.272 141.801 116.272H141.081C140.985 116.272 140.905 116.245 140.841 116.192C140.777 116.139 140.745 116.064 140.745 115.968C140.756 115.648 140.825 115.344 140.953 115.056C141.092 114.768 141.294 114.507 141.561 114.272C141.838 114.037 142.18 113.856 142.585 113.728C143.001 113.589 143.486 113.52 144.041 113.52C144.841 113.52 145.47 113.643 145.929 113.888C146.398 114.133 146.729 114.437 146.921 114.8C147.124 115.152 147.225 115.504 147.225 115.856C147.225 116.272 147.156 116.619 147.017 116.896C146.889 117.173 146.633 117.408 146.249 117.6C146.729 117.781 147.06 118.053 147.241 118.416C147.422 118.779 147.518 119.2 147.529 119.68C147.54 120.235 147.39 120.693 147.081 121.056C146.782 121.419 146.372 121.696 145.849 121.888C145.326 122.069 144.724 122.16 144.041 122.16ZM149.684 122C149.588 122 149.503 121.968 149.428 121.904C149.364 121.829 149.332 121.749 149.332 121.664V114.048C149.332 113.941 149.364 113.856 149.428 113.792C149.503 113.717 149.594 113.68 149.7 113.68H150.468C150.575 113.68 150.66 113.717 150.724 113.792C150.788 113.856 150.82 113.941 150.82 114.048V120.832L150.404 120.4L155.252 113.92C155.306 113.856 155.364 113.803 155.428 113.76C155.492 113.707 155.572 113.68 155.668 113.68H156.404C156.49 113.68 156.564 113.712 156.628 113.776C156.703 113.84 156.74 113.915 156.74 114V121.632C156.74 121.739 156.703 121.829 156.628 121.904C156.564 121.968 156.479 122 156.372 122H155.62C155.503 122 155.412 121.968 155.348 121.904C155.284 121.829 155.252 121.739 155.252 121.632V115.248L155.7 115.232L150.82 121.76C150.778 121.813 150.724 121.867 150.66 121.92C150.596 121.973 150.511 122 150.404 122H149.684ZM159.45 122C159.344 122 159.253 121.968 159.178 121.904C159.114 121.829 159.082 121.739 159.082 121.632V114.048C159.082 113.941 159.114 113.856 159.178 113.792C159.253 113.717 159.344 113.68 159.45 113.68H160.218C160.325 113.68 160.41 113.717 160.474 113.792C160.538 113.856 160.57 113.941 160.57 114.048V117.12H164.938V114.048C164.938 113.941 164.97 113.856 165.034 113.792C165.109 113.717 165.2 113.68 165.306 113.68H166.058C166.165 113.68 166.25 113.717 166.314 113.792C166.389 113.856 166.426 113.941 166.426 114.048V121.632C166.426 121.739 166.389 121.829 166.314 121.904C166.25 121.968 166.165 122 166.058 122H165.306C165.2 122 165.109 121.968 165.034 121.904C164.97 121.829 164.938 121.739 164.938 121.632V118.4H160.57V121.632C160.57 121.739 160.538 121.829 160.474 121.904C160.41 121.968 160.325 122 160.218 122H159.45Z" fill="#2E2E2F"/>
<path d="M68.996 151.22C67.7787 151.22 66.7594 151.022 65.938 150.626C65.1167 150.215 64.486 149.636 64.046 148.888C63.6207 148.14 63.386 147.267 63.342 146.27C63.3274 145.977 63.32 145.647 63.32 145.28C63.32 144.899 63.3274 144.569 63.342 144.29C63.386 143.278 63.6354 142.405 64.09 141.672C64.5447 140.924 65.1827 140.352 66.004 139.956C66.8254 139.545 67.8227 139.34 68.996 139.34C70.1547 139.34 71.1447 139.545 71.966 139.956C72.7874 140.352 73.4254 140.924 73.88 141.672C74.3347 142.405 74.584 143.278 74.628 144.29C74.6574 144.569 74.672 144.899 74.672 145.28C74.672 145.647 74.6574 145.977 74.628 146.27C74.584 147.267 74.342 148.14 73.902 148.888C73.4767 149.636 72.8534 150.215 72.032 150.626C71.2107 151.022 70.1987 151.22 68.996 151.22ZM68.996 148.8C69.7147 148.8 70.2574 148.58 70.624 148.14C70.9907 147.685 71.1887 147.025 71.218 146.16C71.2327 145.94 71.24 145.647 71.24 145.28C71.24 144.913 71.2327 144.62 71.218 144.4C71.1887 143.549 70.9907 142.897 70.624 142.442C70.2574 141.987 69.7147 141.76 68.996 141.76C68.2774 141.76 67.7274 141.987 67.346 142.442C66.9794 142.897 66.7814 143.549 66.752 144.4C66.7374 144.62 66.73 144.913 66.73 145.28C66.73 145.647 66.7374 145.94 66.752 146.16C66.7814 147.025 66.9794 147.685 67.346 148.14C67.7274 148.58 68.2774 148.8 68.996 148.8ZM80.4489 151C80.2876 151 80.1556 150.949 80.0529 150.846C79.9502 150.743 79.8989 150.611 79.8989 150.45V142.156H76.4449C76.2836 142.156 76.1516 142.105 76.0489 142.002C75.9462 141.899 75.8949 141.767 75.8949 141.606V140.11C75.8949 139.949 75.9462 139.817 76.0489 139.714C76.1516 139.611 76.2836 139.56 76.4449 139.56H86.5869C86.7482 139.56 86.8802 139.611 86.9829 139.714C87.0856 139.817 87.1369 139.949 87.1369 140.11V141.606C87.1369 141.767 87.0856 141.899 86.9829 142.002C86.8802 142.105 86.7482 142.156 86.5869 142.156H83.1329V150.45C83.1329 150.611 83.0816 150.743 82.9789 150.846C82.8762 150.949 82.7516 151 82.6049 151H80.4489ZM99.2978 151.22C98.2124 151.22 97.2811 151.088 96.5038 150.824C95.7264 150.56 95.0884 150.223 94.5898 149.812C94.0911 149.401 93.7171 148.954 93.4678 148.47C93.2184 147.971 93.0864 147.495 93.0718 147.04C93.0718 146.908 93.1158 146.798 93.2038 146.71C93.2918 146.622 93.4018 146.578 93.5338 146.578H95.9538C96.1151 146.578 96.2471 146.615 96.3498 146.688C96.4524 146.747 96.5478 146.857 96.6358 147.018C96.7531 147.355 96.9438 147.627 97.2078 147.832C97.4718 148.037 97.7798 148.184 98.1318 148.272C98.4984 148.345 98.8871 148.382 99.2978 148.382C100.119 148.382 100.764 148.191 101.234 147.81C101.703 147.429 101.938 146.893 101.938 146.204C101.938 145.5 101.718 144.994 101.278 144.686C100.838 144.378 100.214 144.224 99.4078 144.224H97.0538C96.9071 144.224 96.7824 144.173 96.6798 144.07C96.5771 143.967 96.5258 143.843 96.5258 143.696V142.618C96.5258 142.442 96.5551 142.295 96.6138 142.178C96.6871 142.061 96.7604 141.973 96.8338 141.914L100.618 138.438H94.4138C94.2524 138.438 94.1204 138.387 94.0178 138.284C93.9151 138.181 93.8638 138.057 93.8638 137.91V136.15C93.8638 135.989 93.9151 135.857 94.0178 135.754C94.1204 135.651 94.2524 135.6 94.4138 135.6H104.182C104.343 135.6 104.475 135.651 104.578 135.754C104.68 135.857 104.732 135.989 104.732 136.15V137.734C104.732 137.895 104.702 138.035 104.644 138.152C104.585 138.255 104.512 138.335 104.424 138.394L100.838 141.936L101.058 141.958C101.923 142.046 102.693 142.259 103.368 142.596C104.042 142.933 104.57 143.417 104.952 144.048C105.348 144.664 105.546 145.449 105.546 146.402C105.546 147.399 105.274 148.257 104.732 148.976C104.189 149.695 103.448 150.252 102.51 150.648C101.571 151.029 100.5 151.22 99.2978 151.22ZM113.808 151.22C112.752 151.22 111.843 151.073 111.08 150.78C110.332 150.472 109.709 150.054 109.21 149.526C108.726 148.983 108.359 148.36 108.11 147.656C107.875 146.937 107.736 146.175 107.692 145.368C107.677 144.972 107.663 144.532 107.648 144.048C107.648 143.549 107.648 143.051 107.648 142.552C107.663 142.053 107.677 141.599 107.692 141.188C107.721 140.381 107.861 139.626 108.11 138.922C108.374 138.218 108.755 137.602 109.254 137.074C109.753 136.546 110.376 136.135 111.124 135.842C111.887 135.534 112.781 135.38 113.808 135.38C114.835 135.38 115.722 135.534 116.47 135.842C117.218 136.135 117.841 136.546 118.34 137.074C118.839 137.602 119.213 138.218 119.462 138.922C119.726 139.626 119.88 140.381 119.924 141.188C119.939 141.599 119.946 142.053 119.946 142.552C119.961 143.051 119.961 143.549 119.946 144.048C119.946 144.532 119.939 144.972 119.924 145.368C119.88 146.175 119.733 146.937 119.484 147.656C119.235 148.36 118.861 148.983 118.362 149.526C117.878 150.054 117.255 150.472 116.492 150.78C115.744 151.073 114.849 151.22 113.808 151.22ZM113.808 148.36C114.659 148.36 115.282 148.081 115.678 147.524C116.074 146.967 116.287 146.211 116.316 145.258C116.331 144.833 116.338 144.393 116.338 143.938C116.353 143.483 116.353 143.029 116.338 142.574C116.338 142.119 116.331 141.694 116.316 141.298C116.287 140.389 116.074 139.648 115.678 139.076C115.282 138.504 114.659 138.211 113.808 138.196C112.943 138.211 112.312 138.504 111.916 139.076C111.535 139.648 111.329 140.389 111.3 141.298C111.285 141.694 111.271 142.119 111.256 142.574C111.256 143.029 111.256 143.483 111.256 143.938C111.271 144.393 111.285 144.833 111.3 145.258C111.329 146.211 111.542 146.967 111.938 147.524C112.334 148.081 112.957 148.36 113.808 148.36ZM127.925 151C127.778 151 127.653 150.949 127.551 150.846C127.448 150.743 127.397 150.611 127.397 150.45V140.11C127.397 139.949 127.448 139.817 127.551 139.714C127.653 139.611 127.778 139.56 127.925 139.56H130.081C130.242 139.56 130.374 139.611 130.477 139.714C130.579 139.817 130.631 139.949 130.631 140.11V143.894H132.017L134.569 139.912C134.613 139.824 134.679 139.743 134.767 139.67C134.869 139.597 135.001 139.56 135.163 139.56H137.561C137.693 139.56 137.803 139.604 137.891 139.692C137.993 139.765 138.045 139.861 138.045 139.978C138.045 140.022 138.03 140.073 138.001 140.132C137.986 140.191 137.964 140.242 137.935 140.286L134.833 145.082L138.419 150.296C138.477 150.384 138.507 150.479 138.507 150.582C138.507 150.699 138.463 150.802 138.375 150.89C138.287 150.963 138.177 151 138.045 151H135.383C135.236 151 135.111 150.971 135.009 150.912C134.921 150.839 134.84 150.751 134.767 150.648L131.995 146.512H130.631V150.45C130.631 150.611 130.579 150.743 130.477 150.846C130.374 150.949 130.242 151 130.081 151H127.925ZM140.858 151C140.712 151 140.587 150.949 140.484 150.846C140.382 150.743 140.33 150.611 140.33 150.45V140.11C140.33 139.949 140.382 139.817 140.484 139.714C140.587 139.611 140.712 139.56 140.858 139.56H145.874C147.517 139.56 148.72 139.853 149.482 140.44C150.26 141.012 150.648 141.789 150.648 142.772C150.648 143.359 150.538 143.828 150.318 144.18C150.098 144.517 149.79 144.811 149.394 145.06C149.893 145.295 150.282 145.647 150.56 146.116C150.854 146.571 151 147.084 151 147.656C151 148.697 150.597 149.519 149.79 150.12C148.984 150.707 147.774 151 146.16 151H140.858ZM143.498 148.844H145.962C146.476 148.844 146.886 148.749 147.194 148.558C147.517 148.353 147.678 148.037 147.678 147.612C147.678 147.172 147.532 146.857 147.238 146.666C146.945 146.475 146.52 146.38 145.962 146.38H143.498V148.844ZM143.498 144.136H145.874C146.402 144.136 146.82 144.026 147.128 143.806C147.436 143.586 147.59 143.271 147.59 142.86C147.59 142.435 147.436 142.141 147.128 141.98C146.82 141.804 146.402 141.716 145.874 141.716H143.498V144.136ZM153.811 151C153.65 151 153.518 150.949 153.415 150.846C153.312 150.743 153.261 150.611 153.261 150.45V147.986C153.261 147.825 153.312 147.693 153.415 147.59C153.518 147.487 153.65 147.436 153.811 147.436H156.275C156.436 147.436 156.568 147.487 156.671 147.59C156.774 147.693 156.825 147.825 156.825 147.986V150.45C156.825 150.611 156.774 150.743 156.671 150.846C156.568 150.949 156.436 151 156.275 151H153.811ZM164.79 151C164.658 151 164.548 150.956 164.46 150.868C164.372 150.78 164.328 150.67 164.328 150.538V140C164.328 139.883 164.372 139.78 164.46 139.692C164.548 139.604 164.651 139.56 164.768 139.56H166.924C167.188 139.56 167.394 139.692 167.54 139.956L170.752 145.698L173.942 139.956C174.089 139.692 174.294 139.56 174.558 139.56H176.736C176.854 139.56 176.956 139.604 177.044 139.692C177.132 139.78 177.176 139.883 177.176 140V150.538C177.176 150.67 177.132 150.78 177.044 150.868C176.956 150.956 176.846 151 176.714 151H174.404C174.258 151 174.14 150.956 174.052 150.868C173.979 150.78 173.942 150.67 173.942 150.538V142.948L174.932 143.146L171.808 148.756C171.735 148.888 171.647 149.005 171.544 149.108C171.456 149.211 171.324 149.262 171.148 149.262H170.334C170.173 149.262 170.041 149.218 169.938 149.13C169.836 149.027 169.74 148.903 169.652 148.756L166.616 143.344L167.54 143.146V150.538C167.54 150.67 167.496 150.78 167.408 150.868C167.32 150.956 167.21 151 167.078 151H164.79Z" fill="#2E2E2F"/>
<defs>
<filter id="filter0_b_81_10" x="-15" y="-15" width="270" height="270" filterUnits="userSpaceOnUse" color-interpolation-filters="sRGB">
<feFlood flood-opacity="0" result="BackgroundImageFix"/>
<feGaussianBlur in="BackgroundImage" stdDeviation="7.5"/>
<feComposite in2="SourceAlpha" operator="in" result="effect1_backgroundBlur_81_10"/>
<feBlend mode="normal" in="SourceGraphic" in2="effect1_backgroundBlur_81_10" result="shape"/>
</filter>
<linearGradient id="paint0_linear_81_10" x1="46" y1="47.5" x2="213.5" y2="225" gradientUnits="userSpaceOnUse">
<stop stop-color="#FFFEFA"/>
<stop offset="0.654898" stop-color="#F6F1E3"/>
</linearGradient>
<linearGradient id="paint1_linear_81_10" x1="133" y1="-78.9999" x2="288.365" y2="102.334" gradientUnits="userSpaceOnUse">
<stop offset="0.178008" stop-color="#FFF1DD"/>
<stop offset="0.439932" stop-color="#F1D0A1"/>
<stop offset="0.577468" stop-color="#EBC389"/>
<stop offset="0.697444" stop-color="#E7BF85"/>
<stop offset="0.861865" stop-color="#CFA870"/>
<stop offset="1" stop-color="#C39D65"/>
</linearGradient>
</defs>
</svg>
