<svg width="50" height="47" viewBox="0 0 50 47" fill="none" xmlns="http://www.w3.org/2000/svg">
<path d="M49.3293 24.2614C49.2952 22.8961 49.1929 21.5085 48.8861 20.1768C48.3861 18.0283 47.2043 16.2602 44.9543 15.5552C42.4884 14.783 40.2839 15.5104 38.2952 17.0211C38.1929 17.0994 38.102 17.2561 38.102 17.368C38.0907 18.8675 38.0907 20.3559 38.0907 21.8442C38.8179 21.6987 39.4657 21.5085 40.1248 21.4525C41.0111 21.3742 41.8407 21.5533 42.352 22.3813C42.8634 23.1983 43.1816 24.1047 43.1929 25.0559C43.227 28.7152 43.227 32.3744 43.1929 36.0225C43.1816 37.634 42.3179 38.7083 40.7952 39.223C40.6702 39.2678 40.4884 39.4468 40.4884 39.5587C40.477 41.3604 40.4998 43.1621 40.5111 44.9637C40.5111 45.2659 40.6361 45.4002 40.977 45.4002C44.2157 45.4337 47.4657 43.2292 48.5907 40.1966C49.3634 38.1152 49.4543 35.9442 49.4429 33.7621C49.4202 30.6175 49.4202 27.4394 49.3293 24.2614ZM42.9202 7.91206C44.4998 7.74421 46.0907 7.56516 47.6702 7.3973C47.9316 7.37492 48.0679 7.30778 48.0679 7.01682C48.0566 5.20397 48.0679 3.37992 48.0679 1.47754C45.4884 1.76849 42.9998 2.03706 40.5225 2.32802C37.6816 2.65254 34.8975 2.99944 32.0566 3.30159C31.9657 4.45421 31.8748 5.66278 31.7952 6.83778C31.7498 7.57635 31.7157 8.31492 31.6816 9.09825C33.2611 8.9304 34.7725 8.77373 36.2839 8.61706C38.4998 8.38206 40.7043 8.14706 42.9202 7.91206ZM36.6134 26.5218C36.6929 23.3997 36.7611 20.2775 36.852 17.1666C36.8975 15.3873 36.977 13.608 37.0225 11.8175C37.0339 11.2916 37.0225 10.7656 37.0225 10.2173C36.7611 10.2173 36.5793 10.2061 36.4089 10.2173C34.9998 10.2844 33.5907 10.3852 32.1702 10.4187C31.6702 10.4299 31.5566 10.6202 31.5452 11.0454C31.5225 12.0302 31.477 13.0037 31.4429 13.9885C31.2952 17.8492 31.1475 21.7211 31.0111 25.5818C30.9884 26.0966 31.0111 26.6113 31.0111 27.2156C32.8066 27.1597 34.5225 27.1037 36.2498 27.0478C36.6248 27.0366 36.6134 26.7904 36.6134 26.5218ZM38.8179 39.1671C37.4657 39.0216 36.7611 37.7347 36.7157 36.4813C36.6589 34.9706 36.6248 33.4487 36.602 31.938C36.602 31.5575 36.4884 31.4009 36.0679 31.4121C34.5679 31.4568 33.0566 31.4904 31.5452 31.5016C31.1361 31.5016 31.0679 31.6694 31.0793 32.0163C31.102 32.9787 31.0907 33.9411 31.1248 34.9035C31.1702 36.3806 31.1248 37.8802 31.352 39.3349C31.6589 41.1925 32.5793 42.8375 34.1816 43.923C35.602 44.8854 37.2725 45.2659 39.102 45.4785C39.102 43.4194 39.102 41.4499 39.0907 39.4692C39.102 39.3685 38.9316 39.1783 38.8179 39.1671ZM1.29522 23.0416H6.19294C6.19294 21.6092 6.17022 20.244 6.19294 18.8787C6.24976 16.0923 7.04522 15.2306 9.82931 14.8949C9.88612 14.8837 9.93158 14.8278 10.0452 14.7606V10.2061C6.72703 9.83682 3.07931 12.1309 1.88612 15.3202C0.920215 17.838 1.43158 20.4454 1.29522 23.0416ZM9.21567 34.9035C7.03385 34.814 6.38612 34.1313 6.34067 31.9716C6.30658 30.3266 6.34067 28.6816 6.30658 27.0366C6.29522 26.3428 6.21567 25.6378 6.15885 24.9328H1.31794C1.31794 27.4842 1.19294 29.9349 1.34067 32.3744C1.65885 37.3766 4.37476 40.1854 9.14749 40.7561C9.81794 40.8344 10.0679 40.6554 10.0452 39.9952C10.0111 38.574 10.0225 37.1416 10.0452 35.7204C10.0566 35.1049 9.82931 34.9259 9.21567 34.9035ZM21.3861 17.1778C21.3975 18.1961 21.3975 19.2256 21.4089 20.244C21.4089 20.9378 21.4089 21.6316 21.4089 22.3142H26.977C26.977 19.953 27.0793 17.7149 26.9429 15.4992C26.8293 13.5185 25.852 11.8959 24.1134 10.7992C22.3293 9.66897 20.3407 9.50111 18.2952 9.66897C18.102 9.68016 17.7952 9.9823 17.7839 10.1613C17.7384 11.6049 17.7611 13.0597 17.7611 14.548C18.1929 14.5704 18.4998 14.5928 18.8066 14.604C20.6702 14.6711 21.352 15.3537 21.3861 17.1778ZM11.0566 45.5792H16.5793V4.77873C14.6816 4.98016 12.8748 5.1704 11.0566 5.36063V45.5792ZM27.0225 24.2614C25.3975 24.2614 23.8975 24.2837 22.3975 24.2502C21.6929 24.2278 21.4657 24.474 21.4657 25.1678C21.4884 27.1261 21.4202 29.0733 21.4316 31.0316C21.4429 33.5271 20.4657 34.8811 18.0452 35.1161C17.9657 35.1273 17.8861 35.1944 17.8179 35.228V40.3309C22.5793 40.5883 25.6248 38.0928 26.5907 34.4783C27.5111 31.1211 26.8179 27.708 27.0225 24.2614Z" fill="url(#paint0_linear_86_558)"/>
<defs>
<linearGradient id="paint0_linear_86_558" x1="4.25431" y1="23.527" x2="49.7916" y2="23.527" gradientUnits="userSpaceOnUse">
<stop offset="0.0344" stop-color="#273580"/>
<stop offset="0.2149" stop-color="#46317C"/>
<stop offset="0.6071" stop-color="#942673"/>
<stop offset="0.8615" stop-color="#CA1E6D"/>
</linearGradient>
</defs>
</svg>
