<svg width="56" height="56" viewBox="0 0 56 56" fill="none" xmlns="http://www.w3.org/2000/svg">
<path d="M28 0L0 27.5088L28 56L56 27.5088L28 0Z" fill="url(#paint0_linear_78_84)"/>
<path fill-rule="evenodd" clip-rule="evenodd" d="M22.0773 20.052C20.8873 20.2724 19.9082 21.0297 19.3775 22.1404C18.5003 23.9763 19.2018 26.1979 20.9638 27.1638C22.0054 27.7348 23.3184 27.7508 24.3761 27.2054C25.4102 26.6721 26.1455 25.668 26.3632 24.4919C26.4285 24.139 26.4301 23.4936 26.3666 23.131C26.0884 21.5439 24.8597 20.3072 23.3031 20.0475C22.9138 19.9826 22.4429 19.9843 22.0773 20.052ZM34.3454 20.0434C34.2661 20.0701 34.1315 20.1417 34.0464 20.2027C33.9614 20.2637 30.8507 23.4337 27.1339 27.2472C21.622 32.9025 20.3606 34.2142 20.2926 34.3612C20.1719 34.6221 20.1732 35.0791 20.2954 35.3346C20.4054 35.5644 20.6164 35.7807 20.8407 35.8934C21.0899 36.0186 21.5358 36.02 21.7905 35.8963C21.9342 35.8266 23.2165 34.5299 28.7951 28.813C34.3563 23.114 35.6394 21.7816 35.7076 21.6348C35.7755 21.4887 35.7914 21.3964 35.7914 21.1481C35.7914 20.886 35.7773 20.8121 35.6936 20.6376C35.58 20.4005 35.3756 20.1975 35.1449 20.0927C34.9426 20.0007 34.5454 19.9763 34.3454 20.0434ZM23.1521 22.3732C23.4588 22.4703 23.7394 22.684 23.916 22.955C24.1124 23.2565 24.1748 23.494 24.1594 23.8822C24.1491 24.1424 24.1283 24.235 24.0349 24.4375C23.8898 24.752 23.6363 25.0119 23.3292 25.1609C23.1072 25.2687 23.0673 25.2761 22.7051 25.2761C22.3407 25.2761 22.3046 25.2693 22.0869 25.1601C21.7972 25.0148 21.525 24.7267 21.3824 24.4145C21.0628 23.7144 21.3455 22.8529 22.0149 22.4872C22.3785 22.2886 22.763 22.2501 23.1521 22.3732ZM32.7485 28.4186C31.4396 28.6296 30.3095 29.5436 29.8362 30.774C29.6281 31.315 29.5999 31.4889 29.6019 32.2161C29.6037 32.8362 29.6105 32.9058 29.6998 33.2075C29.7527 33.386 29.8576 33.6651 29.9331 33.8278C30.825 35.7518 33.0878 36.5505 34.9471 35.5976C36.9096 34.5918 37.6025 32.0302 36.4207 30.15C35.8666 29.2684 35.024 28.6731 34.0325 28.4627C33.7377 28.4001 33.0166 28.3753 32.7485 28.4186ZM33.7236 30.7563C34.1611 30.8895 34.5514 31.2942 34.6886 31.7571C34.9896 32.7728 34.1779 33.7808 33.1391 33.6814C32.6659 33.6361 32.1814 33.2855 31.9646 32.8316C31.8581 32.6085 31.8515 32.5715 31.8515 32.1981C31.8515 31.8398 31.8609 31.7808 31.9491 31.5877C32.1301 31.1918 32.3695 30.9597 32.7719 30.7901C33.0184 30.6862 33.4437 30.6711 33.7236 30.7563Z" fill="#2E2E2F"/>
<defs>
<linearGradient id="paint0_linear_78_84" x1="-30" y1="-32.5" x2="48.3903" y2="-32.1698" gradientUnits="userSpaceOnUse">
<stop stop-color="#C39D65"/>
<stop offset="0.333333" stop-color="#D5AF76"/>
<stop offset="0.53125" stop-color="#EBC389"/>
<stop offset="0.807292" stop-color="#CFA870"/>
<stop offset="1" stop-color="#C39D65"/>
</linearGradient>
</defs>
</svg>
