<svg width="56" height="56" viewBox="0 0 56 56" fill="none" xmlns="http://www.w3.org/2000/svg">
<path d="M28 0L0 27.5088L28 56L56 27.5088L28 0Z" fill="url(#paint0_linear_78_77)"/>
<path fill-rule="evenodd" clip-rule="evenodd" d="M25.4879 20.4316L22.9918 22.8631L25.4974 25.3038L28.003 27.7444V25.5519V23.3594L28.2412 23.3714C30.2227 23.4709 31.9303 24.4208 33.0226 26.0311C33.8406 27.2371 34.1646 28.7541 33.9111 30.1907C33.6319 31.7725 32.6829 33.1858 31.2995 34.08C29.3129 35.364 26.6932 35.364 24.7065 34.08C23.1469 33.0719 22.142 31.3994 22.0261 29.6191L22.0008 29.2293L21.0004 29.2194L20 29.2095V29.3918C20 29.492 20.0176 29.7471 20.0391 29.9585C20.2213 31.7503 21.0351 33.4155 22.3571 34.7016C23.2646 35.5844 24.3057 36.2169 25.4791 36.5983C29.3211 37.8469 33.4803 36.1029 35.2457 32.503C35.9783 31.0092 36.1864 29.2635 35.8298 27.6037C35.1773 24.5665 32.5957 22.1081 29.4703 21.5477C29.0824 21.4782 28.4866 21.4153 28.2145 21.4153H28.0038L27.9939 19.7077L27.984 18L25.4879 20.4316Z" fill="#2E2E2F"/>
<defs>
<linearGradient id="paint0_linear_78_77" x1="-30" y1="-32.5" x2="48.3903" y2="-32.1698" gradientUnits="userSpaceOnUse">
<stop stop-color="#C39D65"/>
<stop offset="0.333333" stop-color="#D5AF76"/>
<stop offset="0.53125" stop-color="#EBC389"/>
<stop offset="0.807292" stop-color="#CFA870"/>
<stop offset="1" stop-color="#C39D65"/>
</linearGradient>
</defs>
</svg>
