<svg width="56" height="56" viewBox="0 0 56 56" fill="none" xmlns="http://www.w3.org/2000/svg">
<path d="M28 0L0 27.5088L28 56L56 27.5088L28 0Z" fill="url(#paint0_linear_78_70)"/>
<path fill-rule="evenodd" clip-rule="evenodd" d="M24.6323 20.0373C24.3071 20.1334 24.0917 20.3114 23.9763 20.5795C23.9149 20.7221 23.906 21.1733 23.906 24.139V27.5352H22.453H21V28.483V29.4309H22.453H23.906V30.3568V31.2826H22.453H21V32.2305V33.1784H22.453H23.906V34.5892V36H24.8596H25.8131V34.5892V33.1784H28.7192H31.6252V32.2305V31.2826H28.7192H25.8131V30.3568V29.4309H28.0398C29.3184 29.4309 30.452 29.4109 30.7019 29.3838C32.7127 29.1661 34.3551 27.7851 34.8823 25.8689C34.9864 25.4904 35 25.357 35 24.7135C35 24.0701 34.9864 23.9367 34.8823 23.5582C34.3551 21.642 32.7127 20.261 30.7019 20.0433C30.2037 19.9894 24.8126 19.9841 24.6323 20.0373ZM30.7852 21.958C31.8453 22.1734 32.7619 23.0371 33.0075 24.0522C33.0963 24.4189 33.0963 25.0082 33.0075 25.3749C32.821 26.1458 32.228 26.866 31.4885 27.22C30.8488 27.5262 30.7706 27.5335 28.1402 27.5344L25.8131 27.5352V24.7135V21.8919L28.1402 21.8927C30.0065 21.8933 30.5303 21.9062 30.7852 21.958Z" fill="#2E2E2F"/>
<defs>
<linearGradient id="paint0_linear_78_70" x1="-30" y1="-32.5" x2="48.3903" y2="-32.1698" gradientUnits="userSpaceOnUse">
<stop stop-color="#C39D65"/>
<stop offset="0.333333" stop-color="#D5AF76"/>
<stop offset="0.53125" stop-color="#EBC389"/>
<stop offset="0.807292" stop-color="#CFA870"/>
<stop offset="1" stop-color="#C39D65"/>
</linearGradient>
</defs>
</svg>
