<svg width="35" height="35" viewBox="0 0 35 35" fill="none" xmlns="http://www.w3.org/2000/svg">
<path d="M0 0H35V35H0V0Z" fill="black"/>
<path d="M8.5752 21.8007L8.6452 22.002C8.63645 21.9801 8.6102 21.9101 8.5752 21.8007ZM11.4146 17.2114C11.5414 16.122 11.9702 15.5139 12.7752 14.8882C13.9302 14.0439 15.3696 14.5207 15.3696 14.5207V11.6814C15.7196 11.6726 16.0696 11.6945 16.4152 11.747V15.4001C16.4152 15.4001 14.9758 14.9232 13.8208 15.7676C13.0158 16.3932 12.5871 17.0014 12.4602 18.0907C12.4558 18.6814 12.5608 19.4557 13.0508 20.1207C12.9283 20.0551 12.8058 19.9807 12.6789 19.8976C11.6071 19.1451 11.4102 18.012 11.4146 17.2114ZM22.3696 6.43137C21.5777 5.52574 21.2758 4.60699 21.1664 3.96387H22.1639C22.1639 3.96387 21.9671 5.65262 23.4152 7.31074L23.4371 7.33262C23.0433 7.07887 22.6846 6.77262 22.3696 6.43137ZM27.1777 9.00387V12.5826C27.1777 12.5826 25.9046 12.5301 24.9596 12.2807C23.6427 11.9307 22.7983 11.3926 22.7983 11.3926C22.7983 11.3926 22.2121 11.0076 22.1683 10.9814V18.3751C22.1683 18.7864 22.0589 19.8145 21.7308 20.672C21.3021 21.792 20.6371 22.5314 20.5146 22.6801C20.5146 22.6801 19.7052 23.6776 18.2833 24.347C17.0014 24.9507 15.8727 24.9376 15.5358 24.9507C15.5358 24.9507 13.5889 25.0295 11.8346 23.8439C11.4539 23.5814 11.0996 23.2839 10.7758 22.9557L10.7846 22.9645C12.5389 24.1545 14.4858 24.0714 14.4858 24.0714C14.8227 24.0582 15.9514 24.0714 17.2333 23.4676C18.6552 22.7982 19.4646 21.8007 19.4646 21.8007C19.5871 21.652 20.2521 20.9126 20.6808 19.7926C21.0089 18.9351 21.1183 17.907 21.1183 17.4957V10.1064C21.1664 10.1326 21.7483 10.5176 21.7483 10.5176C21.7483 10.5176 22.5927 11.0557 23.9096 11.4057C24.8546 11.6551 26.1277 11.7076 26.1277 11.7076V8.90324C26.5652 9.00387 26.9371 9.03012 27.1777 9.00387Z" fill="#EE1D52"/>
<path d="M26.1273 8.89887V11.7032C26.1273 11.7032 24.8542 11.6507 23.9092 11.4014C22.5923 11.0514 21.748 10.5132 21.748 10.5132C21.748 10.5132 21.1617 10.1282 21.118 10.102V17.4957C21.118 17.907 21.0086 18.9351 20.6805 19.7926C20.2517 20.9126 19.5867 21.652 19.4642 21.8007C19.4642 21.8007 18.6548 22.7982 17.233 23.4676C15.9511 24.0714 14.8223 24.0582 14.4855 24.0714C14.4855 24.0714 12.5386 24.1501 10.7842 22.9645L10.7755 22.9557C10.5917 22.7676 10.4167 22.5707 10.2548 22.3651C9.69483 21.652 9.35358 20.812 9.26608 20.5714V20.567C9.12608 20.1514 8.83733 19.1451 8.8767 18.1782C8.9467 16.4676 9.5242 15.4132 9.67733 15.1507C10.0798 14.4332 10.6092 13.7901 11.2305 13.252C11.7817 12.7882 12.4073 12.4164 13.0767 12.1582C13.803 11.852 14.5817 11.6901 15.3692 11.677V14.5164C15.3692 14.5164 13.9298 14.0395 12.7748 14.8839C11.9698 15.5095 11.5411 16.1176 11.4142 17.207C11.4098 18.0076 11.6067 19.1407 12.683 19.8976C12.8098 19.9807 12.9323 20.0551 13.0548 20.1207C13.243 20.3745 13.4705 20.5976 13.733 20.7814C14.7873 21.477 15.6667 21.5251 16.7955 21.0745C17.548 20.7726 18.1123 20.0945 18.3748 19.3376C18.5411 18.8651 18.5367 18.3926 18.5367 17.9026V3.96387H21.1617C21.2711 4.60699 21.5686 5.52574 22.3648 6.43137C22.6842 6.77262 23.0429 7.07887 23.4323 7.33262C23.5461 7.45949 24.1367 8.07199 24.8979 8.45262C25.2873 8.64949 25.703 8.79824 26.1273 8.89887Z" fill="white"/>
<path d="M8.2207 19.7051L8.28633 19.8932C8.27758 19.8713 8.25133 19.8057 8.2207 19.7051Z" fill="#69C9D0"/>
<path d="M13.0772 12.1625C12.4034 12.4206 11.7822 12.7925 11.2309 13.2563C10.6053 13.7944 10.0803 14.4419 9.6778 15.1594C9.52468 15.4219 8.94718 16.4719 8.87718 18.1869C8.8378 19.1581 9.13093 20.16 9.26655 20.5756V20.58C9.35405 20.8163 9.6953 21.6606 10.2553 22.3738C10.4172 22.5794 10.5922 22.7763 10.7759 22.9644C10.1809 22.5531 9.65593 22.0588 9.2053 21.4944C8.64968 20.79 8.30843 19.9544 8.22093 19.7094V19.7006C8.08093 19.285 7.7878 18.2788 7.83155 17.3075C7.90155 15.5969 8.47905 14.5425 8.63218 14.28C9.03468 13.5625 9.55968 12.915 10.1853 12.3769C10.7366 11.9131 11.3622 11.5413 12.0316 11.2831C12.4516 11.1081 12.8891 10.9813 13.3353 10.8981C14.0091 10.78 14.6959 10.7713 15.3741 10.8675V11.6813C14.5822 11.6944 13.8034 11.8563 13.0772 12.1625Z" fill="#69C9D0"/>
<path d="M21.1664 3.96336H18.5414V17.9021C18.5414 18.3921 18.5414 18.8646 18.3796 19.3371C18.1127 20.0896 17.5483 20.7721 16.8002 21.074C15.6714 21.529 14.7877 21.4765 13.7377 20.7809C13.4752 20.6015 13.2477 20.3784 13.0596 20.1246C13.9564 20.6015 14.7571 20.5927 15.7502 20.1946C16.5027 19.8927 17.0671 19.2102 17.3296 18.4577C17.4958 17.9852 17.4914 17.5127 17.4914 17.0227V3.08398H21.1183C21.1139 3.08398 21.0746 3.42961 21.1664 3.96336ZM26.1277 8.12398V8.89836C25.7033 8.79773 25.2877 8.64898 24.8983 8.45211C24.1414 8.07586 23.5508 7.45898 23.4327 7.33211C23.5683 7.41961 23.7039 7.49836 23.8483 7.57273C24.7758 8.03211 25.6814 8.17211 26.1277 8.12398Z" fill="#69C9D0"/>
<path d="M21.2541 30.3972C21.2541 30.4979 21.2673 30.5941 21.2979 30.6904C21.2979 30.6991 21.3023 30.7035 21.3023 30.7122C21.4466 31.176 21.8754 31.491 22.361 31.491V32.611C21.8141 32.611 21.4248 32.6285 20.8298 32.2785C20.156 31.876 19.7754 31.1454 19.7754 30.3841C19.7754 29.601 20.1998 28.8135 20.926 28.4329C21.451 28.1572 21.8491 28.1572 22.3654 28.1572V29.2772C21.7529 29.2772 21.2585 29.7716 21.2585 30.3841L21.2541 30.3972Z" fill="#69C9D0"/>
<path d="M23.4765 30.3972C23.4765 30.4979 23.4634 30.5941 23.4327 30.6904C23.4327 30.6991 23.4284 30.7035 23.4284 30.7122C23.284 31.176 22.8552 31.491 22.3696 31.491V32.611C22.9121 32.611 23.3059 32.6285 23.8965 32.2785C24.5746 31.876 24.9552 31.1454 24.9552 30.3841C24.9552 29.601 24.5309 28.8135 23.8046 28.4329C23.2796 28.1572 22.8815 28.1572 22.3652 28.1572V29.2772C22.9777 29.2772 23.4721 29.7716 23.4721 30.3841V30.3972H23.4765Z" fill="#EE1D52"/>
<path d="M5.22852 27.1426H9.32789L8.94727 28.2713H7.87539V32.5895H6.55852V28.2713H5.22852V27.1426ZM16.096 27.1426V28.2713H17.426V32.5895H18.7473V28.2713H19.8191L20.1998 27.1426H16.096ZM10.2204 28.4245C10.5748 28.4245 10.8591 28.1401 10.8591 27.7857C10.8591 27.4313 10.5748 27.147 10.2204 27.147C9.86602 27.147 9.58164 27.4313 9.58164 27.7857C9.58164 28.1401 9.86602 28.4245 10.2204 28.4245ZM9.58164 32.5851H10.8766V28.8751H9.58164V32.5851ZM15.5316 28.3938H14.0179L12.7141 29.6976V27.1426H11.4279L11.4235 32.5807H12.7229V31.1632L13.1254 30.7957L14.3854 32.5807H15.7723L13.9479 29.9732L15.5316 28.3938ZM27.9479 29.9776L29.5316 28.3938H28.0179L26.7141 29.6976V27.1426H25.4279L25.4191 32.5851H26.7185V31.1676L27.1254 30.8001L28.3854 32.5851H29.7723L27.9479 29.9776ZM24.6185 30.3801C24.6185 31.6095 23.6079 32.607 22.361 32.607C21.1141 32.607 20.1035 31.6095 20.1035 30.3801C20.1035 29.1507 21.1141 28.1532 22.361 28.1532C23.6079 28.1532 24.6185 29.1507 24.6185 30.3801ZM23.4679 30.3801C23.4679 29.7676 22.9735 29.2732 22.361 29.2732C21.7485 29.2732 21.2541 29.7676 21.2541 30.3801C21.2541 30.9926 21.7485 31.487 22.361 31.487C22.9735 31.487 23.4679 30.9926 23.4679 30.3801Z" fill="white"/>
</svg>
